<svg version="1.1" id="video_nav_icon" xmlns="http://www.w3.org/2000/svg" x="0px" y="0px"
 width="24px" height="24px" viewBox="0 0 24 24" enable-background="new 0 0 24 24" xml:space="preserve">
  <g class="icon">
    <polygon points="7.939,5.945 17.986,11.93 7.915,17.874"/>
    <path d="M12,23.927h-0.024c-6.583,0-11.926-5.415-11.913-11.998C0.076,5.362,5.431,0,11.999,0
      c3.214,0.006,6.208,1.245,8.458,3.504c2.251,2.259,3.485,5.29,3.479,8.479C23.922,18.552,18.567,23.927,12,23.927z M12.021,1.712
      c-5.638,0-10.216,4.569-10.228,10.186c-0.011,5.627,4.535,10.217,10.163,10.228h-0.001c5.656,0,10.217-4.57,10.229-10.186
      c0.006-2.727-1.039-5.292-2.964-7.223C17.296,2.784,14.746,1.717,12.021,1.712z"/>
  </g>
</svg>
